<svg id="visual" viewBox="0 0 1440 900" width="1440" height="900" xmlns="http://www.w3.org/2000/svg" xmlns:xlink="http://www.w3.org/1999/xlink" version="1.1"><path d="M0 64L131 64L131 91L262 91L262 82L393 82L393 73L524 73L524 73L655 73L655 55L785 55L785 82L916 82L916 55L1047 55L1047 91L1178 91L1178 100L1309 100L1309 73L1440 73L1440 73L1440 0L1440 0L1309 0L1309 0L1178 0L1178 0L1047 0L1047 0L916 0L916 0L785 0L785 0L655 0L655 0L524 0L524 0L393 0L393 0L262 0L262 0L131 0L131 0L0 0Z" fill="#1a8fe3"></path><path d="M0 136L131 136L131 190L262 190L262 163L393 163L393 172L524 172L524 190L655 190L655 136L785 136L785 199L916 199L916 127L1047 127L1047 226L1178 226L1178 208L1309 208L1309 181L1440 181L1440 172L1440 71L1440 71L1309 71L1309 98L1178 98L1178 89L1047 89L1047 53L916 53L916 80L785 80L785 53L655 53L655 71L524 71L524 71L393 71L393 80L262 80L262 89L131 89L131 62L0 62Z" fill="#00b8c3"></path><path d="M0 388L131 388L131 442L262 442L262 280L393 280L393 361L524 361L524 388L655 388L655 271L785 271L785 307L916 307L916 334L1047 334L1047 469L1178 469L1178 388L1309 388L1309 325L1440 325L1440 343L1440 170L1440 179L1309 179L1309 206L1178 206L1178 224L1047 224L1047 125L916 125L916 197L785 197L785 134L655 134L655 188L524 188L524 170L393 170L393 161L262 161L262 188L131 188L131 134L0 134Z" fill="#72ca6e"></path><path d="M0 451L131 451L131 505L262 505L262 352L393 352L393 424L524 424L524 442L655 442L655 379L785 379L785 406L916 406L916 406L1047 406L1047 541L1178 541L1178 487L1309 487L1309 406L1440 406L1440 415L1440 341L1440 323L1309 323L1309 386L1178 386L1178 467L1047 467L1047 332L916 332L916 305L785 305L785 269L655 269L655 386L524 386L524 359L393 359L393 278L262 278L262 440L131 440L131 386L0 386Z" fill="#e6c229"></path><path d="M0 631L131 631L131 685L262 685L262 613L393 613L393 622L524 622L524 613L655 613L655 622L785 622L785 685L916 685L916 694L1047 694L1047 658L1178 658L1178 658L1309 658L1309 694L1440 694L1440 613L1440 413L1440 404L1309 404L1309 485L1178 485L1178 539L1047 539L1047 404L916 404L916 404L785 404L785 377L655 377L655 440L524 440L524 422L393 422L393 350L262 350L262 503L131 503L131 449L0 449Z" fill="#e6c229"></path><path d="M0 703L131 703L131 766L262 766L262 685L393 685L393 667L524 667L524 658L655 658L655 694L785 694L785 766L916 766L916 739L1047 739L1047 703L1178 703L1178 694L1309 694L1309 757L1440 757L1440 694L1440 611L1440 692L1309 692L1309 656L1178 656L1178 656L1047 656L1047 692L916 692L916 683L785 683L785 620L655 620L655 611L524 611L524 620L393 620L393 611L262 611L262 683L131 683L131 629L0 629Z" fill="#72ca6e"></path><path d="M0 856L131 856L131 838L262 838L262 847L393 847L393 847L524 847L524 838L655 838L655 856L785 856L785 865L916 865L916 820L1047 820L1047 838L1178 838L1178 865L1309 865L1309 829L1440 829L1440 865L1440 692L1440 755L1309 755L1309 692L1178 692L1178 701L1047 701L1047 737L916 737L916 764L785 764L785 692L655 692L655 656L524 656L524 665L393 665L393 683L262 683L262 764L131 764L131 701L0 701Z" fill="#00b8c3"></path><path d="M0 901L131 901L131 901L262 901L262 901L393 901L393 901L524 901L524 901L655 901L655 901L785 901L785 901L916 901L916 901L1047 901L1047 901L1178 901L1178 901L1309 901L1309 901L1440 901L1440 901L1440 863L1440 827L1309 827L1309 863L1178 863L1178 836L1047 836L1047 818L916 818L916 863L785 863L785 854L655 854L655 836L524 836L524 845L393 845L393 845L262 845L262 836L131 836L131 854L0 854Z" fill="#1a8fe3"></path></svg>