<svg id="visual" viewBox="0 0 1440 900" width="1440" height="900" xmlns="http://www.w3.org/2000/svg" xmlns:xlink="http://www.w3.org/1999/xlink" version="1.1"><path d="M0 91L111 91L111 73L222 73L222 64L332 64L332 64L443 64L443 109L554 109L554 73L665 73L665 64L775 64L775 73L886 73L886 91L997 91L997 73L1108 73L1108 73L1218 73L1218 64L1329 64L1329 73L1440 73L1440 64L1440 0L1440 0L1329 0L1329 0L1218 0L1218 0L1108 0L1108 0L997 0L997 0L886 0L886 0L775 0L775 0L665 0L665 0L554 0L554 0L443 0L443 0L332 0L332 0L222 0L222 0L111 0L111 0L0 0Z" fill="#1a8fe3"></path><path d="M0 163L111 163L111 145L222 145L222 100L332 100L332 118L443 118L443 172L554 172L554 109L665 109L665 127L775 127L775 145L886 145L886 145L997 145L997 145L1108 145L1108 145L1218 145L1218 145L1329 145L1329 127L1440 127L1440 109L1440 62L1440 71L1329 71L1329 62L1218 62L1218 71L1108 71L1108 71L997 71L997 89L886 89L886 71L775 71L775 62L665 62L665 71L554 71L554 107L443 107L443 62L332 62L332 62L222 62L222 71L111 71L111 89L0 89Z" fill="#00b8c3"></path><path d="M0 280L111 280L111 298L222 298L222 244L332 244L332 280L443 280L443 334L554 334L554 181L665 181L665 244L775 244L775 235L886 235L886 235L997 235L997 307L1108 307L1108 316L1218 316L1218 271L1329 271L1329 208L1440 208L1440 280L1440 107L1440 125L1329 125L1329 143L1218 143L1218 143L1108 143L1108 143L997 143L997 143L886 143L886 143L775 143L775 125L665 125L665 107L554 107L554 170L443 170L443 116L332 116L332 98L222 98L222 143L111 143L111 161L0 161Z" fill="#72ca6e"></path><path d="M0 433L111 433L111 487L222 487L222 550L332 550L332 397L443 397L443 550L554 550L554 325L665 325L665 406L775 406L775 460L886 460L886 478L997 478L997 550L1108 550L1108 478L1218 478L1218 415L1329 415L1329 487L1440 487L1440 478L1440 278L1440 206L1329 206L1329 269L1218 269L1218 314L1108 314L1108 305L997 305L997 233L886 233L886 233L775 233L775 242L665 242L665 179L554 179L554 332L443 332L443 278L332 278L332 242L222 242L222 296L111 296L111 278L0 278Z" fill="#e6c229"></path><path d="M0 478L111 478L111 559L222 559L222 604L332 604L332 469L443 469L443 604L554 604L554 397L665 397L665 505L775 505L775 541L886 541L886 577L997 577L997 640L1108 640L1108 532L1218 532L1218 505L1329 505L1329 532L1440 532L1440 523L1440 476L1440 485L1329 485L1329 413L1218 413L1218 476L1108 476L1108 548L997 548L997 476L886 476L886 458L775 458L775 404L665 404L665 323L554 323L554 548L443 548L443 395L332 395L332 548L222 548L222 485L111 485L111 431L0 431Z" fill="#e6c229"></path><path d="M0 550L111 550L111 667L222 667L222 685L332 685L332 604L443 604L443 685L554 685L554 541L665 541L665 622L775 622L775 658L886 658L886 685L997 685L997 721L1108 721L1108 604L1218 604L1218 595L1329 595L1329 631L1440 631L1440 667L1440 521L1440 530L1329 530L1329 503L1218 503L1218 530L1108 530L1108 638L997 638L997 575L886 575L886 539L775 539L775 503L665 503L665 395L554 395L554 602L443 602L443 467L332 467L332 602L222 602L222 557L111 557L111 476L0 476Z" fill="#72ca6e"></path><path d="M0 631L111 631L111 721L222 721L222 739L332 739L332 649L443 649L443 748L554 748L554 604L665 604L665 658L775 658L775 721L886 721L886 739L997 739L997 784L1108 784L1108 640L1218 640L1218 676L1329 676L1329 694L1440 694L1440 721L1440 665L1440 629L1329 629L1329 593L1218 593L1218 602L1108 602L1108 719L997 719L997 683L886 683L886 656L775 656L775 620L665 620L665 539L554 539L554 683L443 683L443 602L332 602L332 683L222 683L222 665L111 665L111 548L0 548Z" fill="#00b8c3"></path><path d="M0 901L111 901L111 901L222 901L222 901L332 901L332 901L443 901L443 901L554 901L554 901L665 901L665 901L775 901L775 901L886 901L886 901L997 901L997 901L1108 901L1108 901L1218 901L1218 901L1329 901L1329 901L1440 901L1440 901L1440 719L1440 692L1329 692L1329 674L1218 674L1218 638L1108 638L1108 782L997 782L997 737L886 737L886 719L775 719L775 656L665 656L665 602L554 602L554 746L443 746L443 647L332 647L332 737L222 737L222 719L111 719L111 629L0 629Z" fill="#1a8fe3"></path></svg>