<svg id="visual" viewBox="0 0 1440 900" width="1440" height="900" xmlns="http://www.w3.org/2000/svg" xmlns:xlink="http://www.w3.org/1999/xlink" version="1.1"><path d="M0 100L111 100L111 55L222 55L222 73L332 73L332 100L443 100L443 73L554 73L554 91L665 91L665 73L775 73L775 100L886 100L886 82L997 82L997 100L1108 100L1108 91L1218 91L1218 118L1329 118L1329 127L1440 127L1440 91L1440 0L1440 0L1329 0L1329 0L1218 0L1218 0L1108 0L1108 0L997 0L997 0L886 0L886 0L775 0L775 0L665 0L665 0L554 0L554 0L443 0L443 0L332 0L332 0L222 0L222 0L111 0L111 0L0 0Z" fill="#1a8fe3"></path><path d="M0 145L111 145L111 127L222 127L222 163L332 163L332 145L443 145L443 136L554 136L554 145L665 145L665 163L775 163L775 181L886 181L886 136L997 136L997 154L1108 154L1108 163L1218 163L1218 181L1329 181L1329 226L1440 226L1440 154L1440 89L1440 125L1329 125L1329 116L1218 116L1218 89L1108 89L1108 98L997 98L997 80L886 80L886 98L775 98L775 71L665 71L665 89L554 89L554 71L443 71L443 98L332 98L332 71L222 71L222 53L111 53L111 98L0 98Z" fill="#00b8c3"></path><path d="M0 181L111 181L111 163L222 163L222 226L332 226L332 199L443 199L443 181L554 181L554 226L665 226L665 226L775 226L775 235L886 235L886 181L997 181L997 235L1108 235L1108 199L1218 199L1218 253L1329 253L1329 289L1440 289L1440 235L1440 152L1440 224L1329 224L1329 179L1218 179L1218 161L1108 161L1108 152L997 152L997 134L886 134L886 179L775 179L775 161L665 161L665 143L554 143L554 134L443 134L443 143L332 143L332 161L222 161L222 125L111 125L111 143L0 143Z" fill="#72ca6e"></path><path d="M0 343L111 343L111 352L222 352L222 451L332 451L332 406L443 406L443 334L554 334L554 487L665 487L665 379L775 379L775 496L886 496L886 451L997 451L997 379L1108 379L1108 379L1218 379L1218 487L1329 487L1329 442L1440 442L1440 397L1440 233L1440 287L1329 287L1329 251L1218 251L1218 197L1108 197L1108 233L997 233L997 179L886 179L886 233L775 233L775 224L665 224L665 224L554 224L554 179L443 179L443 197L332 197L332 224L222 224L222 161L111 161L111 179L0 179Z" fill="#e6c229"></path><path d="M0 622L111 622L111 586L222 586L222 685L332 685L332 622L443 622L443 559L554 559L554 649L665 649L665 640L775 640L775 649L886 649L886 631L997 631L997 604L1108 604L1108 622L1218 622L1218 640L1329 640L1329 649L1440 649L1440 595L1440 395L1440 440L1329 440L1329 485L1218 485L1218 377L1108 377L1108 377L997 377L997 449L886 449L886 494L775 494L775 377L665 377L665 485L554 485L554 332L443 332L443 404L332 404L332 449L222 449L222 350L111 350L111 341L0 341Z" fill="#e6c229"></path><path d="M0 811L111 811L111 721L222 721L222 802L332 802L332 802L443 802L443 721L554 721L554 757L665 757L665 757L775 757L775 766L886 766L886 766L997 766L997 775L1108 775L1108 793L1218 793L1218 739L1329 739L1329 784L1440 784L1440 757L1440 593L1440 647L1329 647L1329 638L1218 638L1218 620L1108 620L1108 602L997 602L997 629L886 629L886 647L775 647L775 638L665 638L665 647L554 647L554 557L443 557L443 620L332 620L332 683L222 683L222 584L111 584L111 620L0 620Z" fill="#72ca6e"></path><path d="M0 847L111 847L111 793L222 793L222 838L332 838L332 847L443 847L443 811L554 811L554 811L665 811L665 811L775 811L775 820L886 820L886 811L997 811L997 829L1108 829L1108 847L1218 847L1218 802L1329 802L1329 838L1440 838L1440 838L1440 755L1440 782L1329 782L1329 737L1218 737L1218 791L1108 791L1108 773L997 773L997 764L886 764L886 764L775 764L775 755L665 755L665 755L554 755L554 719L443 719L443 800L332 800L332 800L222 800L222 719L111 719L111 809L0 809Z" fill="#00b8c3"></path><path d="M0 901L111 901L111 901L222 901L222 901L332 901L332 901L443 901L443 901L554 901L554 901L665 901L665 901L775 901L775 901L886 901L886 901L997 901L997 901L1108 901L1108 901L1218 901L1218 901L1329 901L1329 901L1440 901L1440 901L1440 836L1440 836L1329 836L1329 800L1218 800L1218 845L1108 845L1108 827L997 827L997 809L886 809L886 818L775 818L775 809L665 809L665 809L554 809L554 809L443 809L443 845L332 845L332 836L222 836L222 791L111 791L111 845L0 845Z" fill="#1a8fe3"></path></svg>