<svg id="visual" viewBox="0 0 1440 900" width="1440" height="900" xmlns="http://www.w3.org/2000/svg" xmlns:xlink="http://www.w3.org/1999/xlink" version="1.1"><path d="M0 46L111 46L111 109L222 109L222 82L332 82L332 91L443 91L443 64L554 64L554 109L665 109L665 91L775 91L775 100L886 100L886 73L997 73L997 55L1108 55L1108 82L1218 82L1218 100L1329 100L1329 55L1440 55L1440 37L1440 0L1440 0L1329 0L1329 0L1218 0L1218 0L1108 0L1108 0L997 0L997 0L886 0L886 0L775 0L775 0L665 0L665 0L554 0L554 0L443 0L443 0L332 0L332 0L222 0L222 0L111 0L111 0L0 0Z" fill="#e6c229"></path><path d="M0 163L111 163L111 217L222 217L222 154L332 154L332 154L443 154L443 127L554 127L554 226L665 226L665 199L775 199L775 172L886 172L886 127L997 127L997 145L1108 145L1108 181L1218 181L1218 154L1329 154L1329 181L1440 181L1440 118L1440 35L1440 53L1329 53L1329 98L1218 98L1218 80L1108 80L1108 53L997 53L997 71L886 71L886 98L775 98L775 89L665 89L665 107L554 107L554 62L443 62L443 89L332 89L332 80L222 80L222 107L111 107L111 44L0 44Z" fill="#55c982"></path><path d="M0 271L111 271L111 298L222 298L222 226L332 226L332 208L443 208L443 235L554 235L554 343L665 343L665 298L775 298L775 325L886 325L886 280L997 280L997 199L1108 199L1108 226L1218 226L1218 289L1329 289L1329 271L1440 271L1440 172L1440 116L1440 179L1329 179L1329 152L1218 152L1218 179L1108 179L1108 143L997 143L997 125L886 125L886 170L775 170L775 197L665 197L665 224L554 224L554 125L443 125L443 152L332 152L332 152L222 152L222 215L111 215L111 161L0 161Z" fill="#00b2d0"></path><path d="M0 334L111 334L111 352L222 352L222 343L332 343L332 271L443 271L443 343L554 343L554 397L665 397L665 370L775 370L775 433L886 433L886 370L997 370L997 298L1108 298L1108 307L1218 307L1218 424L1329 424L1329 388L1440 388L1440 253L1440 170L1440 269L1329 269L1329 287L1218 287L1218 224L1108 224L1108 197L997 197L997 278L886 278L886 323L775 323L775 296L665 296L665 341L554 341L554 233L443 233L443 206L332 206L332 224L222 224L222 296L111 296L111 269L0 269Z" fill="#1a8fe3"></path><path d="M0 370L111 370L111 415L222 415L222 424L332 424L332 361L443 361L443 433L554 433L554 469L665 469L665 460L775 460L775 460L886 460L886 424L997 424L997 352L1108 352L1108 352L1218 352L1218 478L1329 478L1329 451L1440 451L1440 298L1440 251L1440 386L1329 386L1329 422L1218 422L1218 305L1108 305L1108 296L997 296L997 368L886 368L886 431L775 431L775 368L665 368L665 395L554 395L554 341L443 341L443 269L332 269L332 341L222 341L222 350L111 350L111 332L0 332Z" fill="#1a8fe3"></path><path d="M0 658L111 658L111 541L222 541L222 532L332 532L332 505L443 505L443 658L554 658L554 739L665 739L665 676L775 676L775 586L886 586L886 613L997 613L997 703L1108 703L1108 568L1218 568L1218 604L1329 604L1329 739L1440 739L1440 640L1440 296L1440 449L1329 449L1329 476L1218 476L1218 350L1108 350L1108 350L997 350L997 422L886 422L886 458L775 458L775 458L665 458L665 467L554 467L554 431L443 431L443 359L332 359L332 422L222 422L222 413L111 413L111 368L0 368Z" fill="#00b2d0"></path><path d="M0 838L111 838L111 847L222 847L222 847L332 847L332 865L443 865L443 820L554 820L554 856L665 856L665 874L775 874L775 847L886 847L886 856L997 856L997 847L1108 847L1108 865L1218 865L1218 874L1329 874L1329 874L1440 874L1440 847L1440 638L1440 737L1329 737L1329 602L1218 602L1218 566L1108 566L1108 701L997 701L997 611L886 611L886 584L775 584L775 674L665 674L665 737L554 737L554 656L443 656L443 503L332 503L332 530L222 530L222 539L111 539L111 656L0 656Z" fill="#55c982"></path><path d="M0 901L111 901L111 901L222 901L222 901L332 901L332 901L443 901L443 901L554 901L554 901L665 901L665 901L775 901L775 901L886 901L886 901L997 901L997 901L1108 901L1108 901L1218 901L1218 901L1329 901L1329 901L1440 901L1440 901L1440 845L1440 872L1329 872L1329 872L1218 872L1218 863L1108 863L1108 845L997 845L997 854L886 854L886 845L775 845L775 872L665 872L665 854L554 854L554 818L443 818L443 863L332 863L332 845L222 845L222 845L111 845L111 836L0 836Z" fill="#e6c229"></path></svg>