<svg width="1440" height="905" viewBox="0 0 1440 905" fill="none" xmlns="http://www.w3.org/2000/svg">
<path d="M0 73.3333H90V100H180V55H270V28.3333H360V73.3333H450V55H540V28.3333H630V91.6667H720V110H810V91.6667H900V65H990V128.333H1080V55H1170V38.3333H1260V100H1350V46.6667H1440V55V0H1350H1260H1170H1080H990H900H810H720H630H540H450H360H270H180H90H0V73.3333Z" fill="url(#paint0_linear_137_6)"/>
<path d="M537.5 83.3333V89.1667H450H447.5V91.6667V152.5H362.5V110V107.5H360H272.5V100V97.5H270H182.5V96.6667V54.1667H270H272.5V51.6667V27.5H357.5V70V72.5H360H450H452.5V70V54.1667H540H542.5V51.6667V27.5H627.5V80.8333H540H537.5V83.3333ZM177.5 100V205.833H92.5V181.667V179.167H90H2.5V72.5H87.5V96.6667V99.1667H90H177.5V100ZM1347.5 100V170.833H1262.5V118.333V115.833H1260H1170H1167.5V118.333V152.5H1080H1077.5V155V224.167H992.5V163.333V160.833H990H900H897.5V163.333V187.5H812.5V163.333V160.833H810H722.5V118.333V115.833H720H632.5V90.8333H717.5V106.667V109.167H720H810H812.5V106.667V90.8333H900H902.5V88.3333V64.1667H987.5V125V127.5H990H1080H1082.5V125V54.1667H1170H1172.5V51.6667V37.5H1257.5V96.6667V99.1667H1260H1347.5V100ZM1352.5 96.6667V45.8333H1437.5V51.6667V97.5H1352.5V96.6667Z" stroke="url(#paint1_linear_137_6)" stroke-width="5"/>
<path d="M92.5 263.333V260.833H90H2.5V180.833H87.5V205V207.5H90H180H182.5V205V99.1667H267.5V106.667V109.167H270H357.5V151.667V154.167H360H450H452.5V151.667V90.8333H540H542.5V88.3333V82.5H627.5V115V117.5H630H717.5V160V162.5H720H807.5V186.667V189.167H810H900H902.5V186.667V162.5H987.5V223.333V225.833H990H1080H1082.5V223.333V154.167H1170H1172.5V151.667V117.5H1257.5V170V172.5H1260H1350H1352.5V170V99.1667H1437.5V125V197.5H1350H1347.5V200V224.167H1260H1257.5V226.667V250.833H1170H1167.5V253.333V350.833H1080H1077.5V353.333V359.167H992.5V353.333V350.833H990H900H897.5V353.333V367.5H812.5V308.333V305.833H810H722.5V173.333V170.833H720H630H627.5V173.333V215.833H540H537.5V218.333V322.5H452.5V226.667V224.167H450H362.5V208.333V205.833H360H270H267.5V208.333V332.5H182.5V271.667V269.167H180H92.5V263.333Z" stroke="url(#paint2_linear_137_6)" stroke-width="5"/>
<path d="M92.5 353.333V350.833H90H2.5V262.5H87.5V268.333V270.833H90H177.5V331.667V334.167H180H267.5V335V485.833H182.5V451.667V449.167H180H92.5V353.333ZM272.5 331.667V207.5H357.5V223.333V225.833H360H447.5V321.667V324.167H450H537.5V325V422.5H450H447.5V425V530.833H362.5V335V332.5H360H272.5V331.667ZM542.5 321.667V217.5H630H632.5V215V172.5H717.5V305V307.5H720H807.5V366.667V369.167H810H900H902.5V366.667V352.5H987.5V358.333V360.833H990H1080H1082.5V358.333V352.5H1170H1172.5V350V252.5H1260H1262.5V250V225.833H1350H1352.5V223.333V199.167H1437.5V412.5H1352.5V398.333V395.833H1350H1260H1257.5V398.333V565.833H1172.5V478.333V475.833H1170H1080H1077.5V478.333V547.5H992.5V515V512.5H990H902.5V460V457.5H900H810H807.5V460V494.167H720H717.5V496.667V547.5H632.5V325V322.5H630H542.5V321.667Z" stroke="url(#paint3_linear_137_6)" stroke-width="5"/>
<path d="M537.5 494.167H452.5V424.167H537.5V494.167ZM542.5 385.833V324.167H627.5V385.833H542.5ZM807.5 539.167H722.5V495.833H810H812.5V493.333V459.167H897.5V502.5H810H807.5V505V539.167ZM1262.5 457.5V397.5H1347.5V411.667V414.167H1350H1437.5V433.333V457.5H1350H1262.5ZM1257.5 567.5V629.167H1172.5V567.5H1257.5ZM717.5 549.167V592.5H632.5V549.167H717.5ZM447.5 532.5V557.5H362.5V532.5H447.5ZM267.5 487.5V502.5H180H177.5V505V530.833H92.5V450.833H177.5V485V487.5H180H267.5ZM87.5 385.833H2.5V352.5H87.5V385.833ZM272.5 412.5V334.167H357.5V412.5H272.5ZM1080 557.5H1077.5V560V592.5H992.5V549.167H1080H1082.5V546.667V477.5H1167.5V557.5H1080ZM987.5 530.833H902.5V514.167H987.5V530.833Z" stroke="url(#paint4_linear_137_6)" stroke-width="5"/>
<path d="M1437.5 459.167V692.5H1350H1347.5V695V745.833H1260H1170H1167.5V748.333V809.167H1082.5V748.333V745.833H1080H990H900H897.5V748.333V800.833H812.5V713.333V710.833H810H720H717.5V713.333V719.167H632.5V685V682.5H630H540H537.5V685V790.833H452.5V721.667V719.167H450H360H357.5V721.667V772.5H272.5V766.667V764.167H270H180H177.5V766.667V809.167H92.5V713.333V710.833H90H2.5V387.5H87.5V530V532.5H90H180H182.5V530V504.167H270H272.5V501.667V414.167H357.5V556.667V559.167H360H450H452.5V556.667V495.833H540H542.5V493.333V387.5H627.5V591.667V594.167H630H720H722.5V591.667V540.833H810H812.5V538.333V504.167H897.5V530V532.5H900H987.5V591.667V594.167H990H1080H1082.5V591.667V559.167H1167.5V628.333V630.833H1170H1260H1262.5V628.333V459.167H1350H1437.5Z" stroke="url(#paint5_linear_137_6)" stroke-width="5"/>
<path d="M1167.5 810.833V862.5H1082.5V820V817.5H1080H992.5V793.333V790.833H990H902.5V747.5H990H1077.5V808.333V810.833H1080H1167.5ZM1347.5 747.5V809.167H1262.5V775V772.5H1260H1172.5V747.5H1260H1347.5ZM1352.5 719.167V694.167H1437.5V719.167H1352.5ZM897.5 802.5V862.5H812.5V802.5H897.5ZM717.5 758.333V782.5H632.5V775V772.5H630H542.5V684.167H627.5V718.333V720.833H630H720H722.5V718.333V712.5H807.5V755.833H720H717.5V758.333ZM537.5 792.5V862.5H452.5V811.667V809.167H450H360H357.5V811.667V854.167H272.5V848.333V845.833H270H180H177.5V848.333V862.5H92.5V810.833H180H182.5V808.333V765.833H267.5V771.667V774.167H270H360H362.5V771.667V720.833H447.5V790V792.5H450H537.5ZM87.5 745.833H2.5V712.5H87.5V745.833Z" stroke="url(#paint6_linear_137_6)" stroke-width="5"/>
<path d="M1350 813.833H1352.5V811.333V723.833H1437.5V819.667V902.167H1350H1260H1170H1080H990H900H810H720H630H540H450H360H270H180H90H2.5V750.5H87.5V864.667V867.167H90H180H182.5V864.667V850.5H267.5V856.333V858.833H270H360H362.5V856.333V813.833H447.5V864.667V867.167H450H540H542.5V864.667V777.167H627.5V784.667V787.167H630H720H722.5V784.667V760.5H807.5V864.667V867.167H810H900H902.5V864.667V795.5H987.5V819.667V822.167H990H1077.5V864.667V867.167H1080H1170H1172.5V864.667V777.167H1257.5V811.333V813.833H1260H1350Z" stroke="url(#paint7_linear_137_6)" stroke-width="5"/>
<defs>
<linearGradient id="paint0_linear_137_6" x1="720" y1="0" x2="720" y2="128.333" gradientUnits="userSpaceOnUse">
<stop stop-color="#1A8FE3"/>
<stop offset="0.0001" stop-color="#1A8FE3"/>
<stop offset="1" stop-color="#1A8FE3" stop-opacity="0"/>
</linearGradient>
<linearGradient id="paint1_linear_137_6" x1="720" y1="25" x2="720" y2="226.667" gradientUnits="userSpaceOnUse">
<stop stop-color="#00B8C3"/>
<stop offset="1" stop-color="#00B8C3" stop-opacity="0"/>
</linearGradient>
<linearGradient id="paint2_linear_137_6" x1="720" y1="80" x2="720" y2="370" gradientUnits="userSpaceOnUse">
<stop stop-color="#72CA6E"/>
<stop offset="1" stop-color="#72CA6E" stop-opacity="0"/>
</linearGradient>
<linearGradient id="paint3_linear_137_6" x1="720" y1="170" x2="720" y2="568.333" gradientUnits="userSpaceOnUse">
<stop stop-color="#E6C229"/>
<stop offset="1" stop-color="#E6C229" stop-opacity="0"/>
</linearGradient>
<linearGradient id="paint4_linear_137_6" x1="720" y1="321.667" x2="720" y2="631.667" gradientUnits="userSpaceOnUse">
<stop stop-color="#E6C229"/>
<stop offset="1" stop-color="#E6C229" stop-opacity="0"/>
</linearGradient>
<linearGradient id="paint5_linear_137_6" x1="720" y1="385" x2="720" y2="811.667" gradientUnits="userSpaceOnUse">
<stop stop-color="#72CA6E"/>
<stop offset="1" stop-color="#72CA6E" stop-opacity="0"/>
</linearGradient>
<linearGradient id="paint6_linear_137_6" x1="720" y1="681.667" x2="720" y2="865" gradientUnits="userSpaceOnUse">
<stop stop-color="#00B8C3"/>
<stop offset="1" stop-color="#00B8C3" stop-opacity="0"/>
</linearGradient>
<linearGradient id="paint7_linear_137_6" x1="720" y1="721.333" x2="720" y2="904.667" gradientUnits="userSpaceOnUse">
<stop stop-color="#1A8FE3"/>
<stop offset="1" stop-color="#1A8FE3" stop-opacity="0"/>
</linearGradient>
</defs>
</svg>
