<svg width="1431" height="933" viewBox="0 0 1431 933" fill="none" xmlns="http://www.w3.org/2000/svg">
<g clip-path="url(#clip0_136_2)">
<path d="M0 122.672L26.5331 125.782C53.2153 129.065 106.282 135.285 159.199 135.285C212.116 135.285 264.884 129.065 317.801 153.772C370.718 178.479 423.785 234.459 477 268.669C530.215 302.879 583.282 315.665 636.199 317.393C689.116 319.121 741.884 309.791 794.801 269.533C847.718 229.276 900.785 157.746 954 148.243C1007.22 138.741 1060.28 191.265 1113.2 214.59C1166.12 237.915 1218.88 232.041 1271.8 264.868C1324.72 297.696 1377.78 369.226 1404.47 404.818L1431 440.583V0H1404.47C1377.78 0 1324.72 0 1271.8 0C1218.88 0 1166.12 0 1113.2 0C1060.28 0 1007.22 0 954 0C900.785 0 847.718 0 794.801 0C741.884 0 689.116 0 636.199 0C583.282 0 530.215 0 477 0C423.785 0 370.718 0 317.801 0C264.884 0 212.116 0 159.199 0C106.282 0 53.2153 0 26.5331 0H0V122.672Z" fill="#1A8FE3"/>
<path d="M0 533.883L26.5331 544.768C53.2153 555.826 106.282 577.596 159.199 571.376C212.116 564.983 264.884 530.428 317.801 513.15C370.718 495.872 423.785 495.872 477 486.715C530.215 477.385 583.282 459.071 636.199 463.563C689.116 468.228 741.884 495.872 794.801 484.987C847.718 473.929 900.785 424.515 954 450.95C1007.22 477.385 1060.28 580.015 1113.2 601.785C1166.12 623.728 1218.88 564.983 1271.8 557.208C1324.72 549.433 1377.78 592.628 1404.47 614.225L1431 635.822V437.128L1404.47 401.363C1377.78 365.771 1324.72 294.241 1271.8 261.413C1218.88 228.585 1166.12 234.459 1113.2 211.134C1060.28 187.809 1007.22 135.285 954 144.788C900.785 154.291 847.718 225.821 794.801 266.078C741.884 306.335 689.116 315.665 636.199 313.937C583.282 312.209 530.215 299.424 477 265.214C423.785 231.004 370.718 175.024 317.801 150.317C264.884 125.609 212.116 131.829 159.199 131.829C106.282 131.829 53.2153 125.609 26.5331 122.327L0 119.217V533.883Z" fill="#4DC887"/>
<path d="M0 599.539L26.5331 622.864C53.2153 646.189 106.282 692.839 159.199 714.436C212.116 736.033 264.884 732.578 317.801 724.803C370.718 717.028 423.785 704.933 477 688.001C530.215 670.896 583.282 649.126 636.199 650.508C689.116 651.891 741.884 676.771 794.801 670.378C847.718 663.985 900.785 626.665 954 643.597C1007.22 660.529 1060.28 732.059 1113.2 742.944C1166.12 753.829 1218.88 704.415 1271.8 688.865C1324.72 673.315 1377.78 691.629 1404.47 700.959L1431 710.117V632.367L1404.47 610.769C1377.78 589.172 1324.72 545.978 1271.8 553.753C1218.88 561.528 1166.12 620.272 1113.2 598.329C1060.28 576.559 1007.22 473.929 954 447.494C900.785 421.059 847.718 470.474 794.801 481.532C741.884 492.417 689.116 464.772 636.199 460.107C583.282 455.615 530.215 473.929 477 483.259C423.785 492.417 370.718 492.417 317.801 509.694C264.884 526.972 212.116 561.528 159.199 567.921C106.282 574.141 53.2153 552.371 26.5331 541.313L0 530.428V599.539Z" fill="#E6C229"/>
<path d="M0 786.139H26.5331C53.2153 786.139 106.282 786.139 159.199 795.296C212.116 804.626 264.884 822.941 317.801 819.831C370.718 816.721 423.785 791.841 477 790.458C530.215 789.076 583.282 810.846 636.199 815.511C689.116 820.176 741.884 807.391 794.801 797.888C847.718 788.385 900.785 782.165 954 797.715C1007.22 813.265 1060.28 850.585 1113.2 853.868C1166.12 856.978 1218.88 825.878 1271.8 825.878C1324.72 825.878 1377.78 856.978 1404.47 872.528L1431 888.078V706.661L1404.47 697.504C1377.78 688.174 1324.72 669.859 1271.8 685.409C1218.88 700.959 1166.12 750.374 1113.2 739.489C1060.28 728.604 1007.22 657.074 954 640.142C900.785 623.209 847.718 660.529 794.801 666.922C741.884 673.315 689.116 648.435 636.199 647.053C583.282 645.671 530.215 667.441 477 684.546C423.785 701.478 370.718 713.572 317.801 721.347C264.884 729.122 212.116 732.578 159.199 710.981C106.282 689.383 53.2153 642.733 26.5331 619.408L0 596.083V786.139Z" fill="#4DC887"/>
<path d="M0 934.728H26.5331C53.2153 934.728 106.282 934.728 159.199 934.728C212.116 934.728 264.884 934.728 317.801 934.728C370.718 934.728 423.785 934.728 477 934.728C530.215 934.728 583.282 934.728 636.199 934.728C689.116 934.728 741.884 934.728 794.801 934.728C847.718 934.728 900.785 934.728 954 934.728C1007.22 934.728 1060.28 934.728 1113.2 934.728C1166.12 934.728 1218.88 934.728 1271.8 934.728C1324.72 934.728 1377.78 934.728 1404.47 934.728H1431V884.622L1404.47 869.072C1377.78 853.522 1324.72 822.422 1271.8 822.422C1218.88 822.422 1166.12 853.522 1113.2 850.412C1060.28 847.129 1007.22 809.809 954 794.259C900.785 778.709 847.718 784.929 794.801 794.432C741.884 803.935 689.116 816.721 636.199 812.056C583.282 807.391 530.215 785.621 477 787.003C423.785 788.385 370.718 813.265 317.801 816.375C264.884 819.485 212.116 801.17 159.199 791.84C106.282 782.683 53.2153 782.683 26.5331 782.683H0V934.728Z" fill="#1A8FE3"/>
</g>
<defs>
<clipPath id="clip0_136_2">
<rect width="1431" height="933" fill="white"/>
</clipPath>
</defs>
</svg>
