<svg id="visual" viewBox="0 0 960 540" width="960" height="540" xmlns="http://www.w3.org/2000/svg" xmlns:xlink="http://www.w3.org/1999/xlink" version="1.1"><path d="M0 266L14.5 244.3C29 222.7 58 179.3 87.2 149.5C116.3 119.7 145.7 103.3 174.8 99.7C204 96 233 105 262 121.3C291 137.7 320 161.3 349 172.2C378 183 407 181 436.2 169.2C465.3 157.3 494.7 135.7 523.8 124.8C553 114 582 114 611 133C640 152 669 190 698 202.7C727 215.3 756 202.7 785.2 188.2C814.3 173.7 843.7 157.3 872.8 147.5C902 137.7 931 134.3 945.5 132.7L960 131L960 0L945.5 0C931 0 902 0 872.8 0C843.7 0 814.3 0 785.2 0C756 0 727 0 698 0C669 0 640 0 611 0C582 0 553 0 523.8 0C494.7 0 465.3 0 436.2 0C407 0 378 0 349 0C320 0 291 0 262 0C233 0 204 0 174.8 0C145.7 0 116.3 0 87.2 0C58 0 29 0 14.5 0L0 0Z" fill="#aa8e1e"></path><path d="M0 325L14.5 302.5C29 280 58 235 87.2 204.3C116.3 173.7 145.7 157.3 174.8 151C204 144.7 233 148.3 262 170C291 191.7 320 231.3 349 248.5C378 265.7 407 260.3 436.2 245C465.3 229.7 494.7 204.3 523.8 190.8C553 177.3 582 175.7 611 189.2C640 202.7 669 231.3 698 244.8C727 258.3 756 256.7 785.2 243.2C814.3 229.7 843.7 204.3 872.8 189C902 173.7 931 168.3 945.5 165.7L960 163L960 129L945.5 130.7C931 132.3 902 135.7 872.8 145.5C843.7 155.3 814.3 171.7 785.2 186.2C756 200.7 727 213.3 698 200.7C669 188 640 150 611 131C582 112 553 112 523.8 122.8C494.7 133.7 465.3 155.3 436.2 167.2C407 179 378 181 349 170.2C320 159.3 291 135.7 262 119.3C233 103 204 94 174.8 97.7C145.7 101.3 116.3 117.7 87.2 147.5C58 177.3 29 220.7 14.5 242.3L0 264Z" fill="#e8c73f"></path><path d="M0 384L14.5 365.2C29 346.3 58 308.7 87.2 287.2C116.3 265.7 145.7 260.3 174.8 251.3C204 242.3 233 229.7 262 248.5C291 267.3 320 317.7 349 331.2C378 344.7 407 321.3 436.2 308.8C465.3 296.3 494.7 294.7 523.8 292.8C553 291 582 289 611 296.2C640 303.3 669 319.7 698 325.2C727 330.7 756 325.3 785.2 316.3C814.3 307.3 843.7 294.7 872.8 286.5C902 278.3 931 274.7 945.5 272.8L960 271L960 161L945.5 163.7C931 166.3 902 171.7 872.8 187C843.7 202.3 814.3 227.7 785.2 241.2C756 254.7 727 256.3 698 242.8C669 229.3 640 200.7 611 187.2C582 173.7 553 175.3 523.8 188.8C494.7 202.3 465.3 227.7 436.2 243C407 258.3 378 263.7 349 246.5C320 229.3 291 189.7 262 168C233 146.3 204 142.7 174.8 149C145.7 155.3 116.3 171.7 87.2 202.3C58 233 29 278 14.5 300.5L0 323Z" fill="#efd573"></path><path d="M0 487L14.5 482.5C29 478 58 469 87.2 459.2C116.3 449.3 145.7 438.7 174.8 437.8C204 437 233 446 262 452.2C291 458.3 320 461.7 349 465.2C378 468.7 407 472.3 436.2 464.3C465.3 456.3 494.7 436.7 523.8 432.2C553 427.7 582 438.3 611 441.8C640 445.3 669 441.7 698 434.5C727 427.3 756 416.7 785.2 425.7C814.3 434.7 843.7 463.3 872.8 465.2C902 467 931 442 945.5 429.5L960 417L960 269L945.5 270.8C931 272.7 902 276.3 872.8 284.5C843.7 292.7 814.3 305.3 785.2 314.3C756 323.3 727 328.7 698 323.2C669 317.7 640 301.3 611 294.2C582 287 553 289 523.8 290.8C494.7 292.7 465.3 294.3 436.2 306.8C407 319.3 378 342.7 349 329.2C320 315.7 291 265.3 262 246.5C233 227.7 204 240.3 174.8 249.3C145.7 258.3 116.3 263.7 87.2 285.2C58 306.7 29 344.3 14.5 363.2L0 382Z" fill="#e8c73f"></path><path d="M0 541L14.5 541C29 541 58 541 87.2 541C116.3 541 145.7 541 174.8 541C204 541 233 541 262 541C291 541 320 541 349 541C378 541 407 541 436.2 541C465.3 541 494.7 541 523.8 541C553 541 582 541 611 541C640 541 669 541 698 541C727 541 756 541 785.2 541C814.3 541 843.7 541 872.8 541C902 541 931 541 945.5 541L960 541L960 415L945.5 427.5C931 440 902 465 872.8 463.2C843.7 461.3 814.3 432.7 785.2 423.7C756 414.7 727 425.3 698 432.5C669 439.7 640 443.3 611 439.8C582 436.3 553 425.7 523.8 430.2C494.7 434.7 465.3 454.3 436.2 462.3C407 470.3 378 466.7 349 463.2C320 459.7 291 456.3 262 450.2C233 444 204 435 174.8 435.8C145.7 436.7 116.3 447.3 87.2 457.2C58 467 29 476 14.5 480.5L0 485Z" fill="#aa8e1e"></path></svg>