<svg id="visual" viewBox="0 0 960 540" width="960" height="540" xmlns="http://www.w3.org/2000/svg" xmlns:xlink="http://www.w3.org/1999/xlink" version="1.1"><path d="M0 60L14.5 64.5C29 69 58 78 87.2 74.5C116.3 71 145.7 55 174.8 48.8C204 42.7 233 46.3 262 49.8C291 53.3 320 56.7 349 55.7C378 54.7 407 49.3 436.2 50.3C465.3 51.3 494.7 58.7 523.8 64.2C553 69.7 582 73.3 611 72.3C640 71.3 669 65.7 698 66.5C727 67.3 756 74.7 785.2 79.2C814.3 83.7 843.7 85.3 872.8 82.7C902 80 931 73 945.5 69.5L960 66L960 0L945.5 0C931 0 902 0 872.8 0C843.7 0 814.3 0 785.2 0C756 0 727 0 698 0C669 0 640 0 611 0C582 0 553 0 523.8 0C494.7 0 465.3 0 436.2 0C407 0 378 0 349 0C320 0 291 0 262 0C233 0 204 0 174.8 0C145.7 0 116.3 0 87.2 0C58 0 29 0 14.5 0L0 0Z" fill="#0969a6"></path><path d="M0 120L14.5 136.2C29 152.3 58 184.7 87.2 190C116.3 195.3 145.7 173.7 174.8 171C204 168.3 233 184.7 262 195.5C291 206.3 320 211.7 349 200.8C378 190 407 163 436.2 159.3C465.3 155.7 494.7 175.3 523.8 188C553 200.7 582 206.3 611 207.3C640 208.3 669 204.7 698 201C727 197.3 756 193.7 785.2 187.3C814.3 181 843.7 172 872.8 168.3C902 164.7 931 166.3 945.5 167.2L960 168L960 64L945.5 67.5C931 71 902 78 872.8 80.7C843.7 83.3 814.3 81.7 785.2 77.2C756 72.7 727 65.3 698 64.5C669 63.7 640 69.3 611 70.3C582 71.3 553 67.7 523.8 62.2C494.7 56.7 465.3 49.3 436.2 48.3C407 47.3 378 52.7 349 53.7C320 54.7 291 51.3 262 47.8C233 44.3 204 40.7 174.8 46.8C145.7 53 116.3 69 87.2 72.5C58 76 29 67 14.5 62.5L0 58Z" fill="#3898e5"></path><path d="M0 303L14.5 322C29 341 58 379 87.2 391.7C116.3 404.3 145.7 391.7 174.8 369.2C204 346.7 233 314.3 262 321.5C291 328.7 320 375.3 349 389.7C378 404 407 386 436.2 373.5C465.3 361 494.7 354 523.8 339.7C553 325.3 582 303.7 611 298.2C640 292.7 669 303.3 698 320.3C727 337.3 756 360.7 785.2 349.8C814.3 339 843.7 294 872.8 293.2C902 292.3 931 335.7 945.5 357.3L960 379L960 166L945.5 165.2C931 164.3 902 162.7 872.8 166.3C843.7 170 814.3 179 785.2 185.3C756 191.7 727 195.3 698 199C669 202.7 640 206.3 611 205.3C582 204.3 553 198.7 523.8 186C494.7 173.3 465.3 153.7 436.2 157.3C407 161 378 188 349 198.8C320 209.7 291 204.3 262 193.5C233 182.7 204 166.3 174.8 169C145.7 171.7 116.3 193.3 87.2 188C58 182.7 29 150.3 14.5 134.2L0 118Z" fill="#6eb1eb"></path><path d="M0 487L14.5 487C29 487 58 487 87.2 484.3C116.3 481.7 145.7 476.3 174.8 479C204 481.7 233 492.3 262 497.7C291 503 320 503 349 493.2C378 483.3 407 463.7 436.2 451.2C465.3 438.7 494.7 433.3 523.8 436.8C553 440.3 582 452.7 611 460.7C640 468.7 669 472.3 698 469.7C727 467 756 458 785.2 452.7C814.3 447.3 843.7 445.7 872.8 452.8C902 460 931 476 945.5 484L960 492L960 377L945.5 355.3C931 333.7 902 290.3 872.8 291.2C843.7 292 814.3 337 785.2 347.8C756 358.7 727 335.3 698 318.3C669 301.3 640 290.7 611 296.2C582 301.7 553 323.3 523.8 337.7C494.7 352 465.3 359 436.2 371.5C407 384 378 402 349 387.7C320 373.3 291 326.7 262 319.5C233 312.3 204 344.7 174.8 367.2C145.7 389.7 116.3 402.3 87.2 389.7C58 377 29 339 14.5 320L0 301Z" fill="#3898e5"></path><path d="M0 541L14.5 541C29 541 58 541 87.2 541C116.3 541 145.7 541 174.8 541C204 541 233 541 262 541C291 541 320 541 349 541C378 541 407 541 436.2 541C465.3 541 494.7 541 523.8 541C553 541 582 541 611 541C640 541 669 541 698 541C727 541 756 541 785.2 541C814.3 541 843.7 541 872.8 541C902 541 931 541 945.5 541L960 541L960 490L945.5 482C931 474 902 458 872.8 450.8C843.7 443.7 814.3 445.3 785.2 450.7C756 456 727 465 698 467.7C669 470.3 640 466.7 611 458.7C582 450.7 553 438.3 523.8 434.8C494.7 431.3 465.3 436.7 436.2 449.2C407 461.7 378 481.3 349 491.2C320 501 291 501 262 495.7C233 490.3 204 479.7 174.8 477C145.7 474.3 116.3 479.7 87.2 482.3C58 485 29 485 14.5 485L0 485Z" fill="#0969a6"></path></svg>