<svg id="visual" viewBox="0 0 960 540" width="960" height="540" xmlns="http://www.w3.org/2000/svg" xmlns:xlink="http://www.w3.org/1999/xlink" version="1.1"><path d="M0 71L17.8 72.8C35.7 74.7 71.3 78.3 106.8 78.3C142.3 78.3 177.7 74.7 213.2 89C248.7 103.3 284.3 135.7 320 155.5C355.7 175.3 391.3 182.7 426.8 183.7C462.3 184.7 497.7 179.3 533.2 156C568.7 132.7 604.3 91.3 640 85.8C675.7 80.3 711.3 110.7 746.8 124.2C782.3 137.7 817.7 134.3 853.2 153.3C888.7 172.3 924.3 213.7 942.2 234.3L960 255L960 0L942.2 0C924.3 0 888.7 0 853.2 0C817.7 0 782.3 0 746.8 0C711.3 0 675.7 0 640 0C604.3 0 568.7 0 533.2 0C497.7 0 462.3 0 426.8 0C391.3 0 355.7 0 320 0C284.3 0 248.7 0 213.2 0C177.7 0 142.3 0 106.8 0C71.3 0 35.7 0 17.8 0L0 0Z" fill="#e6c229"></path><path d="M0 309L17.8 315.3C35.7 321.7 71.3 334.3 106.8 330.7C142.3 327 177.7 307 213.2 297C248.7 287 284.3 287 320 281.7C355.7 276.3 391.3 265.7 426.8 268.3C462.3 271 497.7 287 533.2 280.7C568.7 274.3 604.3 245.7 640 261C675.7 276.3 711.3 335.7 746.8 348.3C782.3 361 817.7 327 853.2 322.5C888.7 318 924.3 343 942.2 355.5L960 368L960 253L942.2 232.3C924.3 211.7 888.7 170.3 853.2 151.3C817.7 132.3 782.3 135.7 746.8 122.2C711.3 108.7 675.7 78.3 640 83.8C604.3 89.3 568.7 130.7 533.2 154C497.7 177.3 462.3 182.7 426.8 181.7C391.3 180.7 355.7 173.3 320 153.5C284.3 133.7 248.7 101.3 213.2 87C177.7 72.7 142.3 76.3 106.8 76.3C71.3 76.3 35.7 72.7 17.8 70.8L0 69Z" fill="#00bac0"></path><path d="M0 347L17.8 360.5C35.7 374 71.3 401 106.8 413.5C142.3 426 177.7 424 213.2 419.5C248.7 415 284.3 408 320 398.2C355.7 388.3 391.3 375.7 426.8 376.5C462.3 377.3 497.7 391.7 533.2 388C568.7 384.3 604.3 362.7 640 372.5C675.7 382.3 711.3 423.7 746.8 430C782.3 436.3 817.7 407.7 853.2 398.7C888.7 389.7 924.3 400.3 942.2 405.7L960 411L960 366L942.2 353.5C924.3 341 888.7 316 853.2 320.5C817.7 325 782.3 359 746.8 346.3C711.3 333.7 675.7 274.3 640 259C604.3 243.7 568.7 272.3 533.2 278.7C497.7 285 462.3 269 426.8 266.3C391.3 263.7 355.7 274.3 320 279.7C284.3 285 248.7 285 213.2 295C177.7 305 142.3 325 106.8 328.7C71.3 332.3 35.7 319.7 17.8 313.3L0 307Z" fill="#1a8fe3"></path><path d="M0 455L17.8 455C35.7 455 71.3 455 106.8 460.3C142.3 465.7 177.7 476.3 213.2 474.5C248.7 472.7 284.3 458.3 320 457.5C355.7 456.7 391.3 469.3 426.8 472C462.3 474.7 497.7 467.3 533.2 461.8C568.7 456.3 604.3 452.7 640 461.7C675.7 470.7 711.3 492.3 746.8 494.2C782.3 496 817.7 478 853.2 478C888.7 478 924.3 496 942.2 505L960 514L960 409L942.2 403.7C924.3 398.3 888.7 387.7 853.2 396.7C817.7 405.7 782.3 434.3 746.8 428C711.3 421.7 675.7 380.3 640 370.5C604.3 360.7 568.7 382.3 533.2 386C497.7 389.7 462.3 375.3 426.8 374.5C391.3 373.7 355.7 386.3 320 396.2C284.3 406 248.7 413 213.2 417.5C177.7 422 142.3 424 106.8 411.5C71.3 399 35.7 372 17.8 358.5L0 345Z" fill="#00bac0"></path><path d="M0 541L17.8 541C35.7 541 71.3 541 106.8 541C142.3 541 177.7 541 213.2 541C248.7 541 284.3 541 320 541C355.7 541 391.3 541 426.8 541C462.3 541 497.7 541 533.2 541C568.7 541 604.3 541 640 541C675.7 541 711.3 541 746.8 541C782.3 541 817.7 541 853.2 541C888.7 541 924.3 541 942.2 541L960 541L960 512L942.2 503C924.3 494 888.7 476 853.2 476C817.7 476 782.3 494 746.8 492.2C711.3 490.3 675.7 468.7 640 459.7C604.3 450.7 568.7 454.3 533.2 459.8C497.7 465.3 462.3 472.7 426.8 470C391.3 467.3 355.7 454.7 320 455.5C284.3 456.3 248.7 470.7 213.2 472.5C177.7 474.3 142.3 463.7 106.8 458.3C71.3 453 35.7 453 17.8 453L0 453Z" fill="#e6c229"></path></svg>