<svg width="295" height="436" viewBox="0 0 295 436" fill="none" xmlns="http://www.w3.org/2000/svg">
<g filter="url(#filter0_d_101_8)">
<path d="M134.821 245.394C104.085 245.394 78.9197 241.746 59.3253 234.45C40.1151 227.153 26.0917 215.632 17.255 199.887C8.41834 184.142 4 163.788 4 138.826C4 113.48 8.41834 93.127 17.255 77.7658C26.0917 62.0207 40.1151 50.4998 59.3253 43.2032C78.9197 35.5227 104.085 31.6824 134.821 31.6824C166.326 31.6824 191.683 35.3306 210.894 42.6272C230.104 49.9237 244.127 61.4446 252.964 77.1898C262.185 92.935 266.795 113.48 266.795 138.826C266.795 164.172 262.377 184.718 253.54 200.463C244.703 215.824 230.488 227.153 210.894 234.45C191.683 241.746 166.326 245.394 134.821 245.394ZM100.819 191.822H145.195C154.416 191.822 160.755 190.094 164.213 186.638C168.055 183.182 169.976 177.421 169.976 169.357V85.2544H125.024C115.803 85.2544 109.464 86.9825 106.006 90.4388C102.548 93.511 100.819 99.4634 100.819 108.296V191.822ZM270.253 342.746C270.253 362.331 265.835 378.46 256.998 391.133C248.161 403.806 234.33 413.023 215.504 418.783C196.678 424.928 172.281 428 142.313 428C119.261 428 96.4009 426.272 73.7329 422.816C51.4491 419.743 29.9337 415.135 9.18675 408.991L21.8655 337.561C39.5388 342.554 56.6359 346.202 73.1566 348.506C89.6774 351.194 106.006 352.538 122.143 352.538C132.9 352.538 142.89 352.154 152.11 351.386C161.331 350.618 170.36 349.85 179.197 349.082V322.584C142.313 319.896 115.995 316.44 100.243 312.215C84.4906 307.991 76.6145 302.423 76.6145 295.51L96.7851 230.993L163.06 231.569L160.179 265.556C182.078 268.628 200.136 272.084 214.351 275.925C228.567 279.381 239.709 283.989 247.777 289.75C255.845 295.51 261.608 302.807 265.066 311.639C268.524 320.088 270.253 330.457 270.253 342.746ZM239.133 112.328L187.265 42.6272L242.59 0L291 46.6595L239.133 112.328Z" fill="url(#paint0_linear_101_8)"/>
</g>
<defs>
<filter id="filter0_d_101_8" x="0" y="0" width="295" height="436" filterUnits="userSpaceOnUse" color-interpolation-filters="sRGB">
<feFlood flood-opacity="0" result="BackgroundImageFix"/>
<feColorMatrix in="SourceAlpha" type="matrix" values="0 0 0 0 0 0 0 0 0 0 0 0 0 0 0 0 0 0 127 0" result="hardAlpha"/>
<feOffset dy="4"/>
<feGaussianBlur stdDeviation="2"/>
<feComposite in2="hardAlpha" operator="out"/>
<feColorMatrix type="matrix" values="0 0 0 0 0 0 0 0 0 0 0 0 0 0 0 0 0 0 0.25 0"/>
<feBlend mode="normal" in2="BackgroundImageFix" result="effect1_dropShadow_101_8"/>
<feBlend mode="normal" in="SourceGraphic" in2="effect1_dropShadow_101_8" result="shape"/>
</filter>
<linearGradient id="paint0_linear_101_8" x1="14" y1="64.5" x2="215" y2="327" gradientUnits="userSpaceOnUse">
<stop stop-color="#3ABAB4"/>
<stop offset="0.677083" stop-color="#277E7A"/>
<stop offset="1" stop-color="#333333"/>
</linearGradient>
</defs>
</svg>
