<svg viewBox="0 0 72 96" fill="none" xmlns="http://www.w3.org/2000/svg">
<path fill-rule="evenodd" clip-rule="evenodd" d="M22.4055 60.7371C19.2598 60.2843 16.464 59.6022 14.018 58.691C9.25137 56.8797 5.77171 54.0197 3.57904 50.111C1.38637 46.2023 0.290039 41.1497 0.290039 34.953C0.290039 28.661 1.38637 23.6083 3.57904 19.795C5.77171 15.8863 9.25137 13.0263 14.018 11.215C18.88 9.30833 25.1244 8.35499 32.751 8.35499C38.4498 8.35499 43.338 8.8363 47.4156 9.79891L59.492 0.489992L71.504 12.073L63.3888 22.3523C64.795 25.8201 65.498 30.0204 65.498 34.953C65.498 41.245 64.4017 46.3453 62.209 50.254C60.0164 54.0673 56.489 56.8797 51.627 58.691C48.3166 59.949 44.2705 60.7701 39.4887 61.1544L39.043 66.413C44.477 67.1757 48.9577 68.0337 52.485 68.987C56.0124 69.845 58.777 70.989 60.779 72.419C62.781 73.849 64.211 75.6603 65.069 77.853C65.927 79.9503 66.356 82.5243 66.356 85.575C66.356 89.6539 65.5844 93.1289 64.0413 96H2.6451L4.72304 84.288C9.10837 85.5273 13.3507 86.433 17.45 87.005C21.5494 87.6723 25.601 88.006 29.605 88.006C32.2744 88.006 34.753 87.9107 37.041 87.72C39.329 87.5293 41.5694 87.3387 43.762 87.148V80.57C34.61 79.9027 28.0797 79.0447 24.171 77.996C20.2624 76.9473 18.308 75.565 18.308 73.849L22.4055 60.7371ZM35.325 48.109H24.314V27.374C24.314 25.1813 24.743 23.7037 25.601 22.941C26.459 22.083 28.032 21.654 30.32 21.654H41.474V42.532C41.474 44.534 40.9974 45.964 40.044 46.822C39.186 47.68 37.613 48.109 35.325 48.109Z" fill="#07020A"/>
</svg>
